<mxfile host="Electron" modified="2023-06-13T00:00:31.287Z" agent="Mozilla/5.0 (Macintosh; Intel Mac OS X 10_15_7) AppleWebKit/537.36 (KHTML, like Gecko) draw.io/21.3.7 Chrome/112.0.5615.204 Electron/24.5.0 Safari/537.36" etag="TOPPHRO2LtSwVssF3tks" version="21.3.7" type="device">
  <diagram name="Page-1" id="RxozHE-pjuU5uvj0mKvo">
    <mxGraphModel dx="2156" dy="894" grid="1" gridSize="10" guides="1" tooltips="1" connect="1" arrows="1" fold="1" page="1" pageScale="1" pageWidth="850" pageHeight="1100" math="1" shadow="0">
      <root>
        <mxCell id="0" />
        <mxCell id="1" parent="0" />
        <mxCell id="2FwMpDR07d0FArxzDO8Y-1" value="" style="group" vertex="1" connectable="0" parent="1">
          <mxGeometry x="45" y="280" width="120" height="80" as="geometry" />
        </mxCell>
        <mxCell id="2FwMpDR07d0FArxzDO8Y-2" value="" style="rounded=1;whiteSpace=wrap;html=1;arcSize=5;fontFamily=SF Mono;" vertex="1" parent="2FwMpDR07d0FArxzDO8Y-1">
          <mxGeometry width="120" height="80" as="geometry" />
        </mxCell>
        <mxCell id="2FwMpDR07d0FArxzDO8Y-3" value="ref_count: 2" style="rounded=0;whiteSpace=wrap;html=1;fontFamily=SF Mono;" vertex="1" parent="2FwMpDR07d0FArxzDO8Y-1">
          <mxGeometry y="10" width="120" height="30" as="geometry" />
        </mxCell>
        <mxCell id="2FwMpDR07d0FArxzDO8Y-5" value="a" style="text;html=1;strokeColor=none;fillColor=none;align=center;verticalAlign=middle;whiteSpace=wrap;rounded=0;fontFamily=SF Mono;" vertex="1" parent="1">
          <mxGeometry x="75" y="170" width="60" height="30" as="geometry" />
        </mxCell>
        <mxCell id="2FwMpDR07d0FArxzDO8Y-6" value="" style="endArrow=classic;html=1;rounded=0;exitX=0.5;exitY=1;exitDx=0;exitDy=0;entryX=0.5;entryY=0;entryDx=0;entryDy=0;" edge="1" parent="1" source="2FwMpDR07d0FArxzDO8Y-5" target="2FwMpDR07d0FArxzDO8Y-2">
          <mxGeometry width="50" height="50" relative="1" as="geometry">
            <mxPoint x="325" y="450" as="sourcePoint" />
            <mxPoint x="375" y="400" as="targetPoint" />
          </mxGeometry>
        </mxCell>
        <mxCell id="2FwMpDR07d0FArxzDO8Y-7" value="$$obj1$$" style="text;html=1;strokeColor=none;fillColor=none;align=center;verticalAlign=middle;whiteSpace=wrap;rounded=0;" vertex="1" parent="1">
          <mxGeometry x="-30" y="300" width="60" height="30" as="geometry" />
        </mxCell>
        <mxCell id="2FwMpDR07d0FArxzDO8Y-8" value="" style="group" vertex="1" connectable="0" parent="1">
          <mxGeometry x="315" y="280" width="120" height="80" as="geometry" />
        </mxCell>
        <mxCell id="2FwMpDR07d0FArxzDO8Y-9" value="" style="rounded=1;whiteSpace=wrap;html=1;arcSize=5;fontFamily=SF Mono;" vertex="1" parent="2FwMpDR07d0FArxzDO8Y-8">
          <mxGeometry width="120" height="80" as="geometry" />
        </mxCell>
        <mxCell id="2FwMpDR07d0FArxzDO8Y-10" value="ref_count: 2" style="rounded=0;whiteSpace=wrap;html=1;fontFamily=SF Mono;" vertex="1" parent="2FwMpDR07d0FArxzDO8Y-8">
          <mxGeometry y="10" width="120" height="30" as="geometry" />
        </mxCell>
        <mxCell id="2FwMpDR07d0FArxzDO8Y-11" value="b" style="text;html=1;strokeColor=none;fillColor=none;align=center;verticalAlign=middle;whiteSpace=wrap;rounded=0;fontFamily=SF Mono;" vertex="1" parent="1">
          <mxGeometry x="345" y="170" width="60" height="30" as="geometry" />
        </mxCell>
        <mxCell id="2FwMpDR07d0FArxzDO8Y-12" value="" style="endArrow=classic;html=1;rounded=0;exitX=0.5;exitY=1;exitDx=0;exitDy=0;entryX=0.5;entryY=0;entryDx=0;entryDy=0;" edge="1" parent="1" source="2FwMpDR07d0FArxzDO8Y-11" target="2FwMpDR07d0FArxzDO8Y-9">
          <mxGeometry width="50" height="50" relative="1" as="geometry">
            <mxPoint x="595" y="450" as="sourcePoint" />
            <mxPoint x="645" y="400" as="targetPoint" />
          </mxGeometry>
        </mxCell>
        <mxCell id="2FwMpDR07d0FArxzDO8Y-13" value="$$obj2$$" style="text;html=1;strokeColor=none;fillColor=none;align=center;verticalAlign=middle;whiteSpace=wrap;rounded=0;" vertex="1" parent="1">
          <mxGeometry x="240" y="300" width="60" height="30" as="geometry" />
        </mxCell>
        <mxCell id="2FwMpDR07d0FArxzDO8Y-14" value="" style="group" vertex="1" connectable="0" parent="1">
          <mxGeometry x="595" y="280" width="120" height="80" as="geometry" />
        </mxCell>
        <mxCell id="2FwMpDR07d0FArxzDO8Y-15" value="" style="rounded=1;whiteSpace=wrap;html=1;arcSize=5;fontFamily=SF Mono;" vertex="1" parent="2FwMpDR07d0FArxzDO8Y-14">
          <mxGeometry width="120" height="80" as="geometry" />
        </mxCell>
        <mxCell id="2FwMpDR07d0FArxzDO8Y-16" value="ref_count: 2" style="rounded=0;whiteSpace=wrap;html=1;fontFamily=SF Mono;" vertex="1" parent="2FwMpDR07d0FArxzDO8Y-14">
          <mxGeometry y="10" width="120" height="30" as="geometry" />
        </mxCell>
        <mxCell id="2FwMpDR07d0FArxzDO8Y-17" value="c" style="text;html=1;strokeColor=none;fillColor=none;align=center;verticalAlign=middle;whiteSpace=wrap;rounded=0;fontFamily=SF Mono;" vertex="1" parent="1">
          <mxGeometry x="625" y="170" width="60" height="30" as="geometry" />
        </mxCell>
        <mxCell id="2FwMpDR07d0FArxzDO8Y-18" value="" style="endArrow=classic;html=1;rounded=0;exitX=0.5;exitY=1;exitDx=0;exitDy=0;entryX=0.5;entryY=0;entryDx=0;entryDy=0;" edge="1" parent="1" source="2FwMpDR07d0FArxzDO8Y-17" target="2FwMpDR07d0FArxzDO8Y-15">
          <mxGeometry width="50" height="50" relative="1" as="geometry">
            <mxPoint x="875" y="450" as="sourcePoint" />
            <mxPoint x="925" y="400" as="targetPoint" />
          </mxGeometry>
        </mxCell>
        <mxCell id="2FwMpDR07d0FArxzDO8Y-19" value="$$obj3$$" style="text;html=1;strokeColor=none;fillColor=none;align=center;verticalAlign=middle;whiteSpace=wrap;rounded=0;" vertex="1" parent="1">
          <mxGeometry x="520" y="300" width="60" height="30" as="geometry" />
        </mxCell>
        <mxCell id="2FwMpDR07d0FArxzDO8Y-20" value="" style="endArrow=classic;html=1;rounded=0;exitX=1;exitY=0.75;exitDx=0;exitDy=0;entryX=0;entryY=0.75;entryDx=0;entryDy=0;" edge="1" parent="1" source="2FwMpDR07d0FArxzDO8Y-2" target="2FwMpDR07d0FArxzDO8Y-9">
          <mxGeometry width="50" height="50" relative="1" as="geometry">
            <mxPoint x="500" y="480" as="sourcePoint" />
            <mxPoint x="550" y="430" as="targetPoint" />
          </mxGeometry>
        </mxCell>
        <mxCell id="2FwMpDR07d0FArxzDO8Y-21" value="" style="endArrow=classic;html=1;rounded=0;exitX=1;exitY=0.75;exitDx=0;exitDy=0;entryX=0;entryY=0.75;entryDx=0;entryDy=0;" edge="1" parent="1" source="2FwMpDR07d0FArxzDO8Y-9" target="2FwMpDR07d0FArxzDO8Y-15">
          <mxGeometry width="50" height="50" relative="1" as="geometry">
            <mxPoint x="500" y="480" as="sourcePoint" />
            <mxPoint x="550" y="430" as="targetPoint" />
          </mxGeometry>
        </mxCell>
        <mxCell id="2FwMpDR07d0FArxzDO8Y-22" value="" style="endArrow=classic;html=1;rounded=0;exitX=1;exitY=0.75;exitDx=0;exitDy=0;entryX=0;entryY=0.75;entryDx=0;entryDy=0;" edge="1" parent="1" source="2FwMpDR07d0FArxzDO8Y-15" target="2FwMpDR07d0FArxzDO8Y-2">
          <mxGeometry width="50" height="50" relative="1" as="geometry">
            <mxPoint x="500" y="480" as="sourcePoint" />
            <mxPoint x="550" y="430" as="targetPoint" />
            <Array as="points">
              <mxPoint x="780" y="340" />
              <mxPoint x="780" y="420" />
              <mxPoint x="-30" y="420" />
              <mxPoint x="-30" y="340" />
            </Array>
          </mxGeometry>
        </mxCell>
      </root>
    </mxGraphModel>
  </diagram>
</mxfile>
